HIERARCHY
ROOT joint_Root
{
	OFFSET 0.0 0.0 0.0
	CHANNELS 6 Xposition Yposition Zposition Zrotation Xrotation Yrotation 
	JOINT Hips
	{
		OFFSET 4.5925 91.4895 -427.239
		CHANNELS 6 Xposition Yposition Zposition Zrotation Xrotation Yrotation 
		JOINT Spine
		{
			OFFSET 15.7357 0.0 0.0
			CHANNELS 6 Xposition Yposition Zposition Zrotation Xrotation Yrotation 
			JOINT Chest
			{
				OFFSET 8.98455 -0.406207 0.0
				CHANNELS 6 Xposition Yposition Zposition Zrotation Xrotation Yrotation 
				JOINT Neck
				{
					OFFSET 16.3773 0.0 0.0
					CHANNELS 6 Xposition Yposition Zposition Zrotation Xrotation Yrotation 
					JOINT Head
					{
						OFFSET 6.45672 0.0 0.0
						CHANNELS 6 Xposition Yposition Zposition Zrotation Xrotation Yrotation 
						End Site
						{
							OFFSET 0.0 0.0 0.0
						}
					}
				}
				JOINT Shoulder_L
				{
					OFFSET 12.9942 -0.242716 4.98039
					CHANNELS 6 Xposition Yposition Zposition Zrotation Xrotation Yrotation 
					JOINT UpperArm_L
					{
						OFFSET 5.34809 0.0 0.0
						CHANNELS 6 Xposition Yposition Zposition Zrotation Xrotation Yrotation 
						JOINT LowerArm_L
						{
							OFFSET 24.3286 1.87007e-05 0.0
							CHANNELS 6 Xposition Yposition Zposition Zrotation Xrotation Yrotation 
							JOINT Hand_L
							{
								OFFSET 22.2916 0.0 0.0
								CHANNELS 6 Xposition Yposition Zposition Zrotation Xrotation Yrotation 
								End Site
								{
									OFFSET 0.0 0.0 0.0
								}
							}
						}
					}
				}
				JOINT Shoulder_R
				{
					OFFSET 12.9945 -0.242716 -4.98039
					CHANNELS 6 Xposition Yposition Zposition Zrotation Xrotation Yrotation 
					JOINT UpperArm_R
					{
						OFFSET -5.34813 0.0 0.0
						CHANNELS 6 Xposition Yposition Zposition Zrotation Xrotation Yrotation 
						JOINT LowerArm_R
						{
							OFFSET -24.3289 0.000322201 0.0
							CHANNELS 6 Xposition Yposition Zposition Zrotation Xrotation Yrotation 
							JOINT Hand_R
							{
								OFFSET -22.2915 -0.000108084 0.0
								CHANNELS 6 Xposition Yposition Zposition Zrotation Xrotation Yrotation 
								End Site
								{
									OFFSET 0.0 0.0 0.0
								}
							}
						}
					}
				}
			}
		}
		JOINT UpperLeg_L
		{
			OFFSET -2.19248 -6.46944 0.0
			CHANNELS 6 Xposition Yposition Zposition Zrotation Xrotation Yrotation 
			JOINT LowerLeg_L
			{
				OFFSET 39.0811 0.0 -1.23785e-05
				CHANNELS 6 Xposition Yposition Zposition Zrotation Xrotation Yrotation 
				JOINT Foot_L
				{
					OFFSET 40.9854 0.0 -1.26872e-05
					CHANNELS 6 Xposition Yposition Zposition Zrotation Xrotation Yrotation 
					JOINT Toes_L
					{
						OFFSET 11.7543 0.0 0.0
						CHANNELS 6 Xposition Yposition Zposition Zrotation Xrotation Yrotation 
						End Site
						{
							OFFSET 0.0 0.0 0.0
						}
					}
				}
			}
		}
		JOINT UpperLeg_R
		{
			OFFSET -2.19251 6.46944 0.0
			CHANNELS 6 Xposition Yposition Zposition Zrotation Xrotation Yrotation 
			JOINT LowerLeg_R
			{
				OFFSET -39.0811 -0.00228153 -0.0401928
				CHANNELS 6 Xposition Yposition Zposition Zrotation Xrotation Yrotation 
				JOINT Foot_R
				{
					OFFSET -40.9854 0.0 0.0
					CHANNELS 6 Xposition Yposition Zposition Zrotation Xrotation Yrotation 
					JOINT Toes_R
					{
						OFFSET -11.7543 0.0 0.0
						CHANNELS 6 Xposition Yposition Zposition Zrotation Xrotation Yrotation 
						End Site
						{
							OFFSET 0.0 0.0 0.0
						}
					}
				}
			}
		}
	}
}
MOTION
Frames:	8
Frame Time:	0.0333333
0.000000 0.000000 0.000000 0.000000 0.000000 -0.000000 -89.533800 89.505600 195.124000 101.279000 88.939900 -8.788170 15.735700 0.000005 -0.000001 89.886000 79.640400 -88.660200 8.984550 -0.406207 -0.000000 12.954200 0.014550 2.449940 16.377300 -0.000001 -0.000001 0.241318 -3.471960 2.184210 6.456720 -0.000001 -0.000000 -6.033340 -2.804590 1.749490 12.994200 -0.242716 4.980390 -91.221800 4.578260 -75.040500 5.348090 -0.000007 -0.000001 -59.209800 36.403300 -23.326400 24.328600 0.000019 0.000005 8.435830 12.788400 -33.821900 22.291600 -0.000001 0.000005 15.921400 5.266910 0.981272 12.994500 -0.242716 -4.980390 88.918400 11.140400 -84.419000 -5.348130 -0.000001 -0.000004 -57.775000 28.925800 -17.318700 -24.328900 0.000322 -0.000009 0.562389 2.349880 -13.491200 -22.291500 -0.000108 -0.000004 14.717200 5.354430 -1.510500 -2.192480 -6.469440 -0.000000 -177.729000 -5.474150 -21.935800 39.081100 -0.000007 -0.000012 0.063571 -0.033852 61.960600 40.985400 -0.000006 -0.000013 1.272410 -3.712310 -62.755800 11.754300 -0.000000 0.000003 -0.001907 -0.027551 -17.697000 -2.192510 6.469440 -0.000001 179.957000 16.438400 164.144000 -39.081100 -0.002282 -0.040193 -0.069747 0.090696 38.840700 -40.985400 0.000008 0.000006 4.782930 -0.488410 -71.113700 -11.754300 -0.000006 -0.000006 -0.003292 -0.043867 -18.357200
0.000000 0.000000 0.000000 0.000000 0.000000 -0.000000 -88.247100 89.905000 195.221000 111.250000 88.682200 -18.952200 15.735700 0.000005 -0.000001 91.007400 79.744100 -89.940700 8.984550 -0.406207 -0.000000 12.739800 0.403337 2.088290 16.377300 -0.000001 -0.000001 0.520827 -3.427260 2.125900 6.456720 -0.000001 -0.000000 -5.826560 -2.890780 1.492880 12.994200 -0.242716 4.980390 -91.215200 4.486250 -74.827400 5.348090 -0.000007 -0.000001 -60.375100 37.133700 -21.934800 24.328600 0.000019 0.000005 8.147400 12.825100 -32.820400 22.291600 -0.000001 0.000005 15.294600 5.271470 0.858476 12.994500 -0.242716 -4.980390 88.939700 10.952100 -84.436000 -5.348130 -0.000001 -0.000004 -56.549100 29.169800 -19.053500 -24.328900 0.000322 -0.000009 0.554772 2.051230 -15.162800 -22.291500 -0.000108 -0.000004 14.993300 5.363040 -1.771950 -2.192480 -6.469440 -0.000000 -178.373000 -5.932940 -23.213100 39.081100 -0.000007 -0.000012 0.050259 -0.029981 59.178800 40.985400 -0.000006 -0.000013 1.909460 -5.853460 -63.886800 11.754300 -0.000000 0.000003 -0.001916 -0.027669 -17.701900 -2.192510 6.469440 -0.000001 179.463000 16.953400 165.858000 -39.081100 -0.002282 -0.040193 -0.060264 0.084194 37.046000 -40.985400 0.000008 0.000006 4.871320 0.233876 -71.219300 -11.754300 -0.000006 -0.000006 -0.003238 -0.043266 -18.332800
0.000000 0.000000 0.000000 0.000000 0.000000 -0.000000 -87.001800 90.236200 195.281000 113.887000 88.551900 -21.959500 15.735700 0.000005 -0.000001 91.628000 79.867300 -90.693500 8.984550 -0.406207 -0.000000 12.487400 0.608787 1.802300 16.377300 -0.000001 -0.000001 0.644779 -3.406920 2.058380 6.456720 -0.000001 -0.000000 -5.914140 -2.987460 1.217200 12.994200 -0.242716 4.980390 -91.142300 4.195850 -74.755500 5.348090 -0.000007 -0.000001 -61.519600 38.015900 -20.581500 24.328600 0.000019 0.000005 8.034110 13.406000 -31.333200 22.291600 -0.000001 0.000005 14.448300 5.274590 0.773575 12.994500 -0.242716 -4.980390 88.988900 10.463200 -84.449100 -5.348130 -0.000001 -0.000004 -55.752000 29.041900 -20.753700 -24.328900 0.000322 -0.000009 0.501137 1.608670 -17.343300 -22.291500 -0.000108 -0.000004 15.451300 5.374200 -2.115920 -2.192480 -6.469440 -0.000000 -178.745000 -6.113150 -23.932000 39.081100 -0.000007 -0.000012 0.038619 -0.028383 53.682000 40.985400 -0.000006 -0.000013 1.748880 -5.890820 -64.539000 11.754300 -0.000000 0.000003 -0.001924 -0.027763 -17.705700 -2.192510 6.469440 -0.000001 179.148000 17.844700 167.322000 -39.081100 -0.002282 -0.040193 -0.045813 0.069294 35.322000 -40.985400 0.000008 0.000006 5.073880 1.174900 -71.343500 -11.754300 -0.000006 -0.000006 -0.003237 -0.043254 -18.332300
0.000000 0.000000 0.000000 0.000000 0.000000 -0.000000 -85.795100 90.446900 195.283000 109.232000 88.196500 -17.818100 15.735700 0.000005 -0.000001 92.337500 79.991900 -91.557700 8.984550 -0.406207 -0.000000 12.229100 0.839304 1.469400 16.377300 -0.000001 -0.000001 0.546714 -3.439040 2.069640 6.456720 -0.000001 -0.000000 -6.185090 -3.072860 0.985637 12.994200 -0.242716 4.980390 -91.100700 4.046650 -74.770100 5.348090 -0.000007 -0.000001 -62.313800 38.892600 -19.237200 24.328600 0.000019 0.000005 8.030360 14.294600 -29.743900 22.291600 -0.000001 0.000005 13.699400 5.276330 0.726941 12.994500 -0.242716 -4.980390 89.043500 9.999680 -84.508000 -5.348130 -0.000001 -0.000004 -54.883000 28.904100 -22.496000 -24.328900 0.000322 -0.000009 0.317685 0.882766 -19.877600 -22.291500 -0.000108 -0.000004 15.716800 5.386010 -2.488050 -2.192480 -6.469440 -0.000000 -178.937000 -6.595540 -24.228400 39.081100 -0.000007 -0.000012 0.030625 -0.029321 46.242500 40.985400 -0.000006 -0.000013 0.529734 -4.328670 -63.730300 11.754300 -0.000000 0.000003 -0.001772 -0.025826 -17.626900 -2.192510 6.469440 -0.000001 178.931000 18.516700 168.384000 -39.081100 -0.002282 -0.040193 -0.039565 0.063581 33.982500 -40.985400 0.000008 0.000006 5.185550 2.195940 -71.586500 -11.754300 -0.000006 -0.000006 -0.003179 -0.042615 -18.306300
0.000000 0.000000 0.000000 0.000000 0.000000 -0.000000 -84.556900 90.503000 195.198000 99.983400 87.628000 -9.159810 15.735700 0.000005 -0.000001 93.099200 80.116800 -92.446700 8.984550 -0.406207 -0.000000 11.967100 1.083240 1.191080 16.377300 -0.000001 -0.000001 0.245795 -3.401310 2.143870 6.456720 -0.000001 -0.000000 -6.458020 -3.079060 0.806927 12.994200 -0.242716 4.980390 -91.085000 4.001240 -74.814200 5.348090 -0.000007 -0.000001 -63.076200 39.541400 -17.895200 24.328600 0.000019 0.000005 7.870180 15.180000 -27.830100 22.291600 -0.000001 0.000005 13.023500 5.272990 0.817212 12.994500 -0.242716 -4.980390 89.101400 9.634460 -84.645900 -5.348130 -0.000001 -0.000004 -53.729600 28.898800 -24.328300 -24.328900 0.000322 -0.000009 -0.087198 -0.206776 -22.495400 -22.291500 -0.000108 -0.000004 15.979500 5.400720 -2.960530 -2.192480 -6.469440 -0.000000 -179.000000 -7.305850 -24.221100 39.081100 -0.000007 -0.000012 0.020957 -0.026766 38.057600 40.985400 -0.000006 -0.000013 -0.492210 -1.848570 -62.402600 11.754300 -0.000000 0.000003 -0.001322 -0.019880 -17.385200 -2.192510 6.469440 -0.000001 178.846000 19.008500 169.096000 -39.081100 -0.002282 -0.040193 -0.036160 0.060307 33.194300 -40.985400 0.000008 0.000006 5.376500 3.289230 -72.106900 -11.754300 -0.000006 -0.000006 -0.003179 -0.042607 -18.305900
0.000000 0.000000 0.000000 0.000000 0.000000 -0.000000 -83.141000 90.379400 195.075000 89.553100 86.654300 0.865605 15.735700 0.000005 -0.000001 94.126800 80.143300 -93.571300 8.984550 -0.406207 -0.000000 11.892200 1.426430 0.962034 16.377300 -0.000001 -0.000001 -0.042144 -3.281150 2.249870 6.456720 -0.000001 -0.000000 -6.903380 -3.015480 0.805888 12.994200 -0.242716 4.980390 -91.053600 3.888510 -74.827000 5.348090 -0.000007 -0.000001 -64.034000 39.719700 -16.665400 24.328600 0.000019 0.000005 7.546880 16.067500 -25.580100 22.291600 -0.000001 0.000005 12.389700 5.268450 0.939720 12.994500 -0.242716 -4.980390 89.168600 9.342080 -84.891300 -5.348130 -0.000001 -0.000004 -52.357500 28.986500 -26.327400 -24.328900 0.000322 -0.000009 -0.369393 -0.793234 -24.896700 -22.291500 -0.000108 -0.000004 16.271200 5.410360 -3.277020 -2.192480 -6.469440 -0.000000 -178.849000 -7.877800 -24.225000 39.081100 -0.000007 -0.000012 0.050751 -0.083493 31.292600 40.985400 -0.000006 -0.000013 -0.259566 0.729295 -61.754500 11.754300 -0.000000 0.000003 -0.001577 -0.023289 -17.523700 -2.192510 6.469440 -0.000001 178.880000 19.042100 169.811000 -39.081100 -0.002282 -0.040193 -0.030693 0.052348 32.994400 -40.985400 0.000008 0.000006 5.459830 4.272780 -72.992200 -11.754300 -0.000006 -0.000006 -0.003383 -0.044861 -18.397700
0.000000 0.000000 0.000000 0.000000 0.000000 -0.000000 -81.512600 90.114900 194.788000 89.228600 85.595500 0.922444 15.735700 0.000005 -0.000001 94.417700 80.120500 -94.128800 8.984550 -0.406207 -0.000000 11.933400 1.519310 0.418782 16.377300 -0.000001 -0.000001 -0.227960 -3.071120 2.435310 6.456720 -0.000001 -0.000000 -7.454250 -2.752520 0.914950 12.994200 -0.242716 4.980390 -91.016500 3.782140 -74.945000 5.348090 -0.000007 -0.000001 -65.119300 39.234700 -15.560300 24.328600 0.000019 0.000005 7.007850 16.891200 -22.931600 22.291600 -0.000001 0.000005 11.937100 5.266400 0.996052 12.994500 -0.242716 -4.980390 89.235100 9.183200 -85.217900 -5.348130 -0.000001 -0.000004 -50.803500 29.043500 -28.524500 -24.328900 0.000322 -0.000009 -0.497987 -0.983440 -26.807700 -22.291500 -0.000108 -0.000004 16.477100 5.415790 -3.457500 -2.192480 -6.469440 -0.000000 -179.181000 -8.322810 -26.108900 39.081100 -0.000007 -0.000012 0.046266 -0.081117 29.698200 40.985400 -0.000006 -0.000013 0.071071 1.390730 -58.474000 11.754300 -0.000000 0.000003 -0.001456 -0.021684 -17.458500 -2.192510 6.469440 -0.000001 178.348000 18.631000 170.396000 -39.081100 -0.002282 -0.040193 0.000683 0.003937 33.555100 -40.985400 0.000008 0.000006 5.605870 4.754270 -74.343600 -11.754300 -0.000006 -0.000006 -0.003185 -0.042679 -18.308800
0.000000 0.000000 0.000000 0.000000 0.000000 -0.000000 -79.510800 89.699700 194.382000 91.168500 84.652100 -1.026370 15.735700 0.000005 -0.000001 93.948700 80.081000 -94.011100 8.984550 -0.406207 -0.000000 12.028000 1.351850 -0.267052 16.377300 -0.000001 -0.000001 -0.233861 -2.819620 2.624560 6.456720 -0.000001 -0.000000 -7.920960 -2.412210 1.128200 12.994200 -0.242716 4.980390 -90.969200 3.654680 -75.136700 5.348090 -0.000007 -0.000001 -65.911400 38.879900 -14.909300 24.328600 0.000019 0.000005 6.180560 17.402100 -19.904900 22.291600 -0.000001 0.000005 11.598100 5.258220 1.214690 12.994500 -0.242716 -4.980390 89.279000 9.105030 -85.453100 -5.348130 -0.000001 -0.000004 -49.385100 29.130800 -30.746000 -24.328900 0.000322 -0.000009 -0.534097 -1.003190 -27.984200 -22.291500 -0.000108 -0.000004 16.783000 5.418530 -3.549360 -2.192480 -6.469440 -0.000000 -179.535000 -8.359210 -26.783600 39.081100 -0.000007 -0.000012 -0.008723 0.014567 30.916500 40.985400 -0.000006 -0.000013 0.288122 0.354008 -55.554200 11.754300 -0.000000 0.000003 -0.000827 -0.012921 -17.102300 -2.192510 6.469440 -0.000001 177.435000 17.470500 171.068000 -39.081100 -0.002282 -0.040193 0.030434 -0.038938 34.879400 -40.985400 0.000008 0.000006 5.385510 4.425390 -75.805300 -11.754300 -0.000006 -0.000006 -0.002555 -0.035456 -18.014900
